<?xml version="1.0" encoding="utf-8"?>
<!-- Generator: Adobe Illustrator 16.0.0, SVG Export Plug-In . SVG Version: 6.00 Build 0)  -->
<!DOCTYPE svg PUBLIC "-//W3C//DTD SVG 1.1//EN" "http://www.w3.org/Graphics/SVG/1.1/DTD/svg11.dtd">
<svg version="1.1" id="Layer_1" xmlns="http://www.w3.org/2000/svg" xmlns:xlink="http://www.w3.org/1999/xlink" x="0px" y="0px"
	 width="2000px" height="2000px" viewBox="0 0 2000 2000" enable-background="new 0 0 2000 2000" xml:space="preserve">
<polygon fill="#B8B8B8" points="1800,2000 200,2000 200,0 1000,0 1800,800 "/>
<path fill="#DCDCDC" d="M1000,800c0,0,520,0,800,0c0-200-500-800-800-800C1000,480,1000,800,1000,800z"/>
<g>
	<path d="M611.902,1613.402H406.831v190.199h228.553v57.139H338.734v-527.55h284.908v57.138H406.831v166.719h205.071V1613.402z"/>
	<path d="M723.824,1340.234c41.484-6.262,90.795-10.957,144.803-10.957c97.839,0,167.5,22.698,213.681,65.748
		c46.963,43.049,74.358,104.101,74.358,189.416c0,86.1-26.613,156.543-75.924,205.072c-49.311,49.311-130.713,75.923-233.249,75.923
		c-48.528,0-89.229-2.349-123.669-6.262V1340.234z M791.92,1806.732c17.22,3.131,42.267,3.914,68.878,3.914
		c145.586,0,224.64-81.402,224.64-223.856c0.782-124.452-69.661-203.506-213.681-203.506c-35.223,0-61.835,3.131-79.837,7.044
		V1806.732z"/>
	<path d="M1313.199,1333.19v527.55h-68.096v-527.55H1313.199z"/>
	<path d="M1532.359,1391.111h-160.457v-57.921h390.575v57.921h-161.239v469.629h-68.879V1391.111z"/>
</g>
</svg>
